<?xml version="1.0" encoding="utf-8"?>
<!-- Generator: Adobe Illustrator 16.0.0, SVG Export Plug-In . SVG Version: 6.00 Build 0)  -->
<!DOCTYPE svg PUBLIC "-//W3C//DTD SVG 1.1//EN" "http://www.w3.org/Graphics/SVG/1.1/DTD/svg11.dtd">
<svg version="1.1" id="Capa_1" xmlns="http://www.w3.org/2000/svg" xmlns:xlink="http://www.w3.org/1999/xlink" x="0px" y="0px"
	 width="59px" height="59.125px" viewBox="0 452.875 59 59.125" enable-background="new 0 452.875 59 59.125" xml:space="preserve">
<g>
	<path fill="#FFFFFF" d="M58.367,453.648c-0.24-0.228-0.527-0.341-0.863-0.341c-6.257,0-11.424,0.851-15.5,2.553
		c-4.075,1.703-8.367,4.796-12.875,9.279c-1.917,1.941-4.028,4.279-6.33,7.013l-13.63,0.719c-0.384,0.049-0.695,0.24-0.935,0.576
		l-8.056,13.811c-0.288,0.479-0.228,0.947,0.18,1.403l2.301,2.301c0.216,0.216,0.492,0.323,0.828,0.323
		c0.144,0,0.251-0.012,0.323-0.035l9.926-3.058l10.106,10.106l-3.057,9.925c-0.12,0.433-0.023,0.815,0.288,1.151l2.301,2.302
		c0.264,0.215,0.54,0.323,0.827,0.323c0.216,0,0.408-0.049,0.576-0.145l13.811-8.056c0.336-0.239,0.527-0.551,0.576-0.935
		l0.719-13.63c2.733-2.302,5.072-4.412,7.013-6.33c4.269-4.292,7.307-8.613,9.117-12.965c1.811-4.352,2.715-9.513,2.715-15.482
		C58.728,454.146,58.608,453.877,58.367,453.648z M49.665,467.262c-0.671,0.671-1.486,1.007-2.445,1.007
		c-0.959,0-1.774-0.336-2.446-1.007c-0.67-0.672-1.007-1.487-1.007-2.446s0.336-1.773,1.007-2.445
		c0.671-0.671,1.486-1.007,2.446-1.007c0.959,0,1.774,0.336,2.445,1.007c0.671,0.672,1.007,1.486,1.007,2.445
		C50.672,465.775,50.337,466.59,49.665,467.262z"/>
</g>
</svg>
