<?xml version="1.0" encoding="utf-8"?>
<!-- Generator: Adobe Illustrator 16.0.0, SVG Export Plug-In . SVG Version: 6.00 Build 0)  -->
<!DOCTYPE svg PUBLIC "-//W3C//DTD SVG 1.1//EN" "http://www.w3.org/Graphics/SVG/1.1/DTD/svg11.dtd">
<svg version="1.1" id="Calque_1" xmlns="http://www.w3.org/2000/svg" xmlns:xlink="http://www.w3.org/1999/xlink" x="0px" y="0px"
	 width="451.668px" height="397.667px" viewBox="0 0 451.668 397.667" enable-background="new 0 0 451.668 397.667"
	 xml:space="preserve">
<rect x="-13" y="-216.333" display="none" fill="#010202" stroke="#000000" stroke-width="2" stroke-miterlimit="10" width="472" height="634"/>
<line fill="none" stroke="#FFFFFF" stroke-width="2" stroke-miterlimit="10" x1="25.555" y1="363.218" x2="447.334" y2="363.218"/>
<line fill="none" stroke="#FFFFFF" stroke-width="2" stroke-miterlimit="10" x1="25.555" y1="364.346" x2="25.555" y2="27.333"/>
<rect x="190.207" y="50.831" fill="none" stroke="#FFFFFF" stroke-miterlimit="10" width="34.96" height="311.26"/>
<rect x="139.458" y="50.831" fill="none" stroke="#FFFFFF" stroke-miterlimit="10" width="34.96" height="311.26"/>
<rect x="88.709" y="50.831" fill="none" stroke="#FFFFFF" stroke-miterlimit="10" width="34.96" height="311.26"/>
<rect x="39.088" y="50.831" fill="none" stroke="#FFFFFF" stroke-miterlimit="10" width="34.96" height="311.26"/>
<rect x="240.955" y="160.975" fill="none" stroke="#FFFFFF" stroke-miterlimit="10" width="34.961" height="201.114"/>
<rect x="291.705" y="160.975" fill="none" stroke="#FFFFFF" stroke-miterlimit="10" width="34.958" height="201.114"/>
<rect x="342.451" y="253.826" fill="none" stroke="#FFFFFF" stroke-miterlimit="10" width="34.961" height="108.266"/>
<rect x="390.946" y="253.826" fill="none" stroke="#FFFFFF" stroke-miterlimit="10" width="34.961" height="108.266"/>
<g>
	
		<linearGradient id="SVGID_1_" gradientUnits="userSpaceOnUse" x1="199.7698" y1="162.6709" x2="187.6399" y2="152.3869" gradientTransform="matrix(2.8756 0 0 -2.8756 -393.4608 482.6525)">
		<stop  offset="0" style="stop-color:#7B2E4E"/>
		<stop  offset="0.135" style="stop-color:#742B4D"/>
		<stop  offset="0.3599" style="stop-color:#602646"/>
		<stop  offset="0.6469" style="stop-color:#421E3D"/>
		<stop  offset="0.9819" style="stop-color:#19152F"/>
		<stop  offset="1" style="stop-color:#19152E"/>
	</linearGradient>
	<path fill="url(#SVGID_1_)" d="M164.519,48h-16.896c-2.021,0-3.654-1.638-3.654-3.654v-16.67c0-2.018,1.635-3.654,3.654-3.654
		h16.896c2,0,3.655,1.637,3.655,3.654v16.67C168.174,46.347,166.52,48,164.519,48z"/>
	<g>
		<path fill="#FFFFFF" d="M157.158,28.545c0.679,0,1.286,0.053,1.845,0.175c0.557,0.122,1.044,0.313,1.427,0.592
			c0.417,0.278,0.73,0.626,0.939,1.079c0.226,0.451,0.331,1.009,0.331,1.67c0,0.714-0.157,1.322-0.487,1.793
			s-0.801,0.869-1.444,1.184c0.87,0.26,1.531,0.695,1.966,1.322c0.437,0.627,0.646,1.393,0.646,2.279c0,0.714-0.14,1.34-0.417,1.861
			c-0.278,0.521-0.662,0.957-1.131,1.289c-0.472,0.33-1.012,0.571-1.619,0.729c-0.608,0.156-1.218,0.243-1.861,0.243h-6.874V28.545
			H157.158L157.158,28.545z M156.758,34.307c0.557,0,1.009-0.141,1.375-0.4c0.366-0.261,0.539-0.697,0.539-1.289
			c0-0.328-0.051-0.606-0.173-0.816c-0.122-0.209-0.279-0.383-0.472-0.506c-0.189-0.121-0.435-0.207-0.678-0.241
			c-0.261-0.054-0.521-0.069-0.801-0.069h-2.958v3.324L156.758,34.307L156.758,34.307z M156.95,40.344
			c0.313,0,0.592-0.035,0.868-0.088c0.278-0.051,0.521-0.156,0.73-0.295c0.208-0.142,0.383-0.332,0.505-0.574
			c0.122-0.243,0.191-0.54,0.191-0.922c0-0.731-0.208-1.254-0.609-1.566c-0.417-0.313-0.957-0.471-1.635-0.471h-3.411v3.898h3.358
			L156.95,40.344L156.95,40.344z"/>
	</g>
</g>
<g>
	<polygon fill="#E65126" points="47.263,24.674 67.5,24.674 65.704,45.352 57.372,47.625 49.06,45.352 	"/>
	<polygon fill="#EC6826" points="65.762,26.395 57.449,26.395 57.449,45.926 64.156,44.014 	"/>
	<g>
		<polygon fill="#FFFFFF" points="53.836,31.459 63.582,31.459 63.813,28.935 62.589,28.935 51.066,28.935 51.774,36.465 
			60.544,36.465 60.22,39.886 57.354,40.594 54.581,39.886 54.409,37.86 51.906,37.86 52.289,41.949 57.469,43.365 62.589,41.949 
			63.334,34 54.143,34 		"/>
	</g>
	<g>
		<polygon fill="#E6E6E6" points="57.354,40.594 54.581,39.886 54.409,37.86 51.906,37.86 52.289,41.949 57.449,43.365 
			57.449,40.574 		"/>
		<polygon fill="#EBEBEB" points="54.143,34 53.836,31.459 57.449,31.459 57.449,28.935 51.066,28.935 51.774,36.465 57.449,36.465 
			57.449,34 		"/>
	</g>
</g>
<g>
	<polygon fill="#1072B9" points="95.352,24.668 115.935,24.668 114.098,45.701 105.635,48.006 97.19,45.701 	"/>
	<polygon fill="#2DA7DF" points="105.635,26.408 114.215,26.408 112.574,44.333 105.635,46.326 	"/>
	<g>
		<polygon fill="#EBEBEB" points="110.95,29.009 99.203,29.009 99.457,31.569 109.27,31.569 108.956,34.148 99.691,34.148 
			99.927,36.67 108.82,36.67 108.487,40.149 105.594,40.852 102.76,40.149 102.604,38.078 100.063,38.078 100.454,42.24 
			105.712,43.667 110.95,42.24 112.181,29.009 		"/>
	</g>
	<g>
		<polygon fill="none" points="108.956,34.148 109.27,31.569 105.692,31.569 105.692,34.148 		"/>
		<polygon fill="none" points="108.487,40.149 108.82,36.67 105.692,36.67 105.692,40.812 		"/>
		<polygon fill="#FFFFFF" points="110.929,29.009 105.635,29.009 105.635,31.569 109.25,31.569 108.938,34.148 105.635,34.148 
			105.635,36.67 108.801,36.67 108.468,40.149 105.635,40.812 105.635,43.667 105.673,43.667 110.929,42.24 112.181,29.009 		"/>
	</g>
</g>
<rect x="349.601" y="228.479" fill="#F0DB4F" width="21.923" height="21.923"/>
<path fill="#333431" d="M369.729,245.173c-0.16-1-0.813-1.84-2.745-2.623c-0.671-0.309-1.418-0.531-1.642-1.037
	c-0.079-0.297-0.09-0.463-0.04-0.643c0.144-0.58,0.838-0.763,1.388-0.597c0.354,0.118,0.689,0.394,0.892,0.827
	c0.947-0.612,0.944-0.607,1.604-1.028c-0.24-0.377-0.369-0.549-0.528-0.71c-0.566-0.635-1.344-0.963-2.583-0.938
	c-0.216,0.025-0.432,0.056-0.646,0.082c-0.619,0.158-1.209,0.48-1.557,0.918c-1.036,1.18-0.739,3.24,0.521,4.086
	c1.245,0.935,3.073,1.146,3.305,2.021c0.229,1.069-0.784,1.416-1.79,1.291c-0.743-0.151-1.153-0.53-1.602-1.215
	c-0.82,0.474-0.82,0.474-1.666,0.96c0.201,0.438,0.412,0.637,0.746,1.014c1.59,1.613,5.563,1.534,6.273-0.904
	C369.692,246.593,369.884,246.034,369.729,245.173L369.729,245.173z M361.519,238.554h-2.05l-0.009,5.302
	c0,1.128,0.059,2.161-0.125,2.478c-0.302,0.625-1.078,0.547-1.435,0.428c-0.358-0.178-0.543-0.431-0.757-0.787
	c-0.058-0.103-0.102-0.182-0.116-0.188c-0.557,0.34-1.108,0.684-1.668,1.021c0.276,0.568,0.688,1.063,1.209,1.384
	c0.781,0.469,1.833,0.612,2.933,0.36c0.715-0.209,1.332-0.644,1.652-1.297c0.466-0.859,0.367-1.902,0.361-3.056
	C361.528,242.322,361.519,240.441,361.519,238.554L361.519,238.554z"/>
<g>
	<path fill="#FFFFFF" d="M305.18,150.201L305.18,150.201l-0.327,1.16L305.18,150.201L305.18,150.201z"/>
	<path fill="#FFFFFF" d="M306.863,152.721l-0.36-0.003L306.863,152.721z"/>
	<path fill="#FFFFFF" d="M306.771,154.453L306.771,154.453l-2.161,0.008L306.771,154.453L306.771,154.453z"/>
	<path fill="#FFFFFF" d="M307.223,152.723l-0.359-0.002L307.223,152.723z"/>
	<path fill="#FFFFFF" d="M306.961,154.306l0.376-1.437L306.961,154.306L306.961,154.306L306.961,154.306z"/>
	<path fill="#FFFFFF" d="M314.917,147.693l-0.701,3.299L314.917,147.693z"/>
	<path fill="#FFFFFF" d="M313.113,147.693l-0.531,2.463L313.113,147.693L313.113,147.693z"/>
	<path fill="#FFFFFF" d="M314.797,147.545h-1.499c-0.084,0-0.167,0.066-0.187,0.146l-0.53,2.465l-0.532,2.463
		c-0.02,0.082-0.103,0.146-0.185,0.146h-1.063c-1.051,0-0.929-0.727-0.713-1.723c0.002-0.01,0.004-0.021,0.007-0.028l0.021-0.126
		c0.002-0.01,0.005-0.018,0.005-0.021l0.048-0.256l0.053-0.273c0.016-0.082,0.039-0.202,0.055-0.278l0.242-1.183l0.241-1.186
		c0.018-0.081-0.038-0.146-0.12-0.146h-1.54c-0.083,0-0.165,0.065-0.182,0.146l-0.331,1.57l-0.332,1.568c0,0.002,0,0.002,0,0.004
		l-0.031,0.146c-0.381,1.74-0.279,3.398,1.792,3.451c0.034,0.001,0.063,0.001,0.063,0.001h3.25c0.084,0,0.165-0.063,0.183-0.146
		l0.702-3.297l0.702-3.299C314.935,147.61,314.879,147.545,314.797,147.545L314.797,147.545L314.797,147.545z"/>
	<path fill="#FFFFFF" d="M320.777,152.785c0.083,0,0.14,0.065,0.122,0.147l-0.146,0.712"/>
	<path fill="#FFFFFF" d="M320.607,154.356l0.146-0.712L320.607,154.356L320.607,154.356L320.607,154.356z"/>
	<path fill="#FFFFFF" d="M320.427,154.506L320.427,154.506c-0.442,0.004-1.771,0.014-2.764,0.014
		C318.875,154.52,320.426,154.506,320.427,154.506L320.427,154.506z"/>
	<path fill="#FFFFFF" d="M316.767,151.867c-0.001-0.076,0.087-0.211,0.171-0.211l-0.188-0.002
		C316.667,152.5,316.767,151.867,316.767,151.867L316.767,151.867z"/>
	<path fill="#FFFFFF" d="M317.8,154.52c-0.01,0-0.021,0-0.029,0C317.778,154.52,317.79,154.52,317.8,154.52z"/>
	<path fill="#FFFFFF" d="M320.777,152.785c0.083,0,0.14,0.065,0.122,0.147l-0.146,0.712l-0.023,0.116"/>
	<path fill="#FFFFFF" d="M318.509,154.518h-0.007H318.509z"/>
	<path fill="#FFFFFF" d="M318.141,154.519h-0.021H318.141z"/>
	<path fill="#FFFFFF" d="M318.027,154.52c-0.012,0-0.021,0-0.033,0C318.005,154.52,318.016,154.52,318.027,154.52z"/>
	<path fill="#FFFFFF" d="M317.914,154.52h-0.03H317.914z"/>
	<path fill="#FFFFFF" d="M318.119,154.519c-0.029,0-0.063,0.001-0.093,0.001C318.058,154.52,318.09,154.519,318.119,154.519z"/>
	<path fill="#FFFFFF" d="M318.503,154.518c-0.121,0.001-0.243,0.001-0.361,0.001C318.26,154.519,318.382,154.519,318.503,154.518z"
		/>
	<path fill="#FFFFFF" d="M320.427,154.506L320.427,154.506c-0.323,0.003-1.122,0.008-1.918,0.012
		C319.305,154.516,320.103,154.509,320.427,154.506z"/>
	<path fill="#FFFFFF" d="M320.607,154.356l0.123-0.596l-0.123,0.598C320.607,154.356,320.607,154.356,320.607,154.356
		L320.607,154.356z"/>
	<path fill="#FFFFFF" d="M317.993,154.52h-0.079H317.993z"/>
	<path fill="#FFFFFF" d="M317.769,154.52h-0.104H317.769z"/>
	<path fill="#FFFFFF" d="M317.884,154.52h-0.085H317.884z"/>
	<path fill="#FFFFFF" d="M295.948,151.885l0.231-1.031l-0.267,1.182l-0.255,1.201l0.224-1.055
		C295.901,152.101,295.93,151.967,295.948,151.885L295.948,151.885z"/>
	<path fill="#FFFFFF" d="M298.734,147.529h-1.646c-0.084,0-0.166,0.065-0.187,0.146l-0.155,0.689l-0.155,0.688
		c-0.019,0.08,0.034,0.146,0.117,0.146h1.66c0.082,0,0.166-0.066,0.184-0.146l0.15-0.688l0.149-0.689l0,0
		C298.872,147.595,298.818,147.529,298.734,147.529L298.734,147.529z"/>
	<path fill="#FFFFFF" d="M298.377,149.82L298.377,149.82l-0.482,2.234L298.377,149.82z"/>
	<path fill="#FFFFFF" d="M293.593,157.225c0,0,0.831,0.011,1.358,0.011C294.551,157.236,293.888,157.229,293.593,157.225
		L293.593,157.225L293.593,157.225z"/>
	<path fill="#FFFFFF" d="M296.415,149.82l-0.234,1.033L296.415,149.82z"/>
	<path fill="#FFFFFF" d="M298.258,149.672h-1.66c-0.082,0-0.165,0.068-0.183,0.148l-0.234,1.031l-0.231,1.031
		c-0.02,0.08-0.047,0.216-0.064,0.297l-0.224,1.055l-0.227,1.055c-0.018,0.082-0.054,0.213-0.08,0.291c0,0-0.31,0.924-0.831,0.912
		c-0.021,0-0.043,0-0.063,0c-0.254-0.004-0.453-0.009-0.453-0.009l0,0c-0.083-0.002-0.165,0.063-0.186,0.146l-0.174,0.724
		l-0.171,0.724c-0.021,0.08,0.031,0.147,0.115,0.148c0.295,0.004,0.958,0.011,1.358,0.011c1.303,0,1.986-0.722,2.428-2.797
		l0.516-2.384l0.482-2.234C298.394,149.74,298.342,149.672,298.258,149.672L298.258,149.672z"/>
	<path fill="#FFFFFF" d="M321.836,154.435c-0.083,0-0.14-0.065-0.12-0.147l1.249-5.85"/>
	<path fill="#FFFFFF" d="M323.57,154.287l0.507-2.496L323.57,154.287z"/>
	<path fill="#FFFFFF" d="M321.734,154.361c-0.011-0.041-0.005-0.141,0.015-0.223l0.593-2.775l-0.625,2.924
		c-0.02,0.082,0.037,0.147,0.12,0.147h0.149C321.903,154.435,321.744,154.402,321.734,154.361L321.734,154.361z"/>
	<path fill="#FFFFFF" d="M323.472,154.402c-0.045,0.02-0.15,0.032-0.234,0.032h0.151c0.084,0,0.165-0.065,0.182-0.147l0.03-0.146
		C323.586,154.221,323.517,154.383,323.472,154.402L323.472,154.402z"/>
	<path fill="#FFFFFF" d="M323.823,153.039l0.225-1.103c-0.001,0.001-0.001,0.001-0.001,0.002L323.823,153.039L323.823,153.039z"/>
	<path fill="#FFFFFF" d="M328.752,148.83l0.065,0.283c0.021,0.082-0.03,0.147-0.114,0.147"/>
	<path fill="#FFFFFF" d="M323.601,154.139l0.223-1.102L323.601,154.139z"/>
	<path fill="#FFFFFF" d="M328.682,148.539l0.069,0.291L328.682,148.539z"/>
	<path fill="#FFFFFF" d="M324.046,151.938c0.018-0.082,0.044-0.214,0.062-0.294l0.238-1.116l-0.269,1.264L324.046,151.938
		L324.046,151.938z"/>
	<path fill="#FFFFFF" d="M322.985,148.343c-0.018,0.079-0.039,0.179-0.053,0.243l-0.592,2.777l0.623-2.928L322.985,148.343
		L322.985,148.343z"/>
	<path fill="#FFFFFF" d="M328.818,149.115l-0.065-0.285l-0.069-0.291l-0.035-0.146c-0.135-0.524-0.528-0.825-1.39-0.825
		l-1.337-0.003l-1.232-0.002h-1.387c-0.084,0-0.165,0.067-0.183,0.147l0,0l-0.063,0.291l-0.071,0.342l-0.021,0.095l-0.623,2.927
		l-0.593,2.774c-0.02,0.082-0.024,0.183-0.016,0.224s0.17,0.072,0.253,0.072h1.25c0.084,0,0.189-0.014,0.234-0.031
		c0.045-0.021,0.113-0.183,0.129-0.265l0.223-1.101l0.224-1.101c0-0.001,0-0.001,0-0.002l0.03-0.146l0.27-1.265l0.238-1.114
		c0.018-0.082,0.101-0.147,0.183-0.147l3.938-0.001C328.787,149.263,328.838,149.197,328.818,149.115L328.818,149.115z"/>
	<path fill="#FFFFFF" d="M333.886,146.545c-0.084,0-0.22,0-0.304,0h-1.262c-0.082,0-0.188,0.058-0.234,0.125l-2.785,4.082
		c-0.048,0.068-0.102,0.059-0.12-0.022l-0.205-0.899c-0.018-0.08-0.101-0.146-0.185-0.146H327c-0.082,0-0.132,0.063-0.108,0.146
		l0.803,2.812c0.021,0.08,0.023,0.212,0.004,0.293l-0.35,1.358c-0.021,0.08,0.029,0.146,0.112,0.146h1.771
		c0.083,0,0.167-0.066,0.188-0.146l0.351-1.358c0.021-0.081,0.077-0.201,0.129-0.269l4.521-6.002
		c0.051-0.065,0.021-0.121-0.063-0.121L333.886,146.545L333.886,146.545z"/>
	<path fill="#FFFFFF" d="M319.657,150.065v-0.002c-0.011,0.091-0.093,0.157-0.177,0.157h-2.271c-0.076,0-0.117-0.053-0.105-0.119
		c0-0.003,0-0.004,0.003-0.006c0,0-0.002,0-0.003,0.001c0-0.003,0-0.005,0.003-0.009c0,0,0.004-0.016,0.009-0.037
		c0.22-0.577,0.658-0.955,1.488-0.955C319.541,149.096,319.722,149.552,319.657,150.065L319.657,150.065z M318.994,147.445
		c-2.914,0-3.605,1.77-3.992,3.555c-0.39,1.818-0.354,3.521,2.661,3.521h0.104c0.01,0,0.021,0,0.029,0h0.193
		c0.013,0,0.022,0,0.034,0c0.03,0,0.063,0,0.093,0h0.021c0.118-0.001,0.24-0.001,0.36-0.002h0.007
		c0.796-0.002,1.595-0.009,1.918-0.011c0.084-0.003,0.164-0.068,0.182-0.148l0.122-0.598l0.023-0.116l0.145-0.712
		c0.02-0.082-0.037-0.146-0.121-0.146h-2.71c-1.078,0-1.396-0.287-1.279-1.129h4.335h-0.001c0.001,0,0.003,0,0.003,0
		c0.066-0.002,0.133-0.052,0.156-0.113c0.008-0.012,0.011-0.023,0.012-0.036l0,0C321.934,149.08,321.749,147.445,318.994,147.445
		L318.994,147.445z"/>
	<path fill="#FFFFFF" d="M305.221,150.057l-0.041,0.145l0,0l-0.327,1.16l-0.327,1.159c-0.021,0.081-0.107,0.146-0.191,0.146h-1.731
		c-1.313,0-1.634-1.025-1.313-2.543c0.319-1.549,0.945-2.513,2.238-2.609C305.293,147.379,305.647,148.621,305.221,150.057
		L305.221,150.057z M306.406,152.578c0,0,0.817-1.981,1.003-3.129c0.255-1.533-0.514-3.757-3.478-3.757
		c-2.95,0-4.229,2.124-4.718,4.431c-0.488,2.324,0.148,4.363,3.082,4.349l2.313-0.011l2.161-0.008c0.084,0,0.167-0.066,0.189-0.146
		l0.376-1.437c0.021-0.082-0.03-0.146-0.113-0.146l-0.359-0.002l-0.36-0.003c-0.07-0.001-0.112-0.048-0.104-0.104
		C306.4,152.601,306.401,152.588,306.406,152.578L306.406,152.578z"/>
	<path fill="#FFFFFF" d="M321.001,151.25c0,0.055-0.045,0.099-0.102,0.099c-0.054,0-0.1-0.044-0.1-0.099s0.046-0.101,0.1-0.101
		C320.956,151.151,321.001,151.195,321.001,151.25z"/>
</g>
<g>
	<path fill="#0A69AD" d="M283.898,148.672c-0.813,1.171-0.711,2.693-0.09,3.936c0.017,0.03,0.031,0.059,0.045,0.088
		c0.012,0.02,0.021,0.038,0.03,0.059c0.005,0.011,0.011,0.021,0.02,0.031c0.011,0.021,0.021,0.039,0.03,0.059
		c0.021,0.033,0.039,0.066,0.062,0.104c0.012,0.018,0.021,0.036,0.034,0.055c0.021,0.037,0.045,0.072,0.065,0.107
		c0.013,0.016,0.021,0.03,0.03,0.047c0.031,0.049,0.066,0.096,0.1,0.144c0,0.002,0.002,0.003,0.002,0.005
		c0.009,0.007,0.014,0.016,0.02,0.021c0.029,0.041,0.06,0.082,0.091,0.121c0.012,0.016,0.023,0.026,0.035,0.045
		c0.025,0.031,0.056,0.066,0.083,0.103c0.012,0.013,0.021,0.026,0.032,0.038c0.039,0.045,0.078,0.091,0.115,0.135
		c0.002,0,0.002,0,0.005,0.001c0.002,0.003,0.003,0.005,0.005,0.005c0.038,0.043,0.078,0.085,0.117,0.126
		c0.013,0.013,0.024,0.026,0.037,0.038c0.031,0.032,0.063,0.063,0.097,0.094c0.014,0.012,0.024,0.024,0.04,0.037
		c0.041,0.04,0.085,0.08,0.129,0.118c0,0.001,0.002,0.001,0.003,0.001c0.006,0.008,0.015,0.014,0.021,0.02
		c0.039,0.033,0.079,0.067,0.118,0.103c0.018,0.015,0.032,0.024,0.049,0.038c0.033,0.025,0.065,0.053,0.102,0.078
		c0.018,0.013,0.035,0.025,0.053,0.037c0.035,0.029,0.072,0.057,0.109,0.08c0.014,0.012,0.024,0.021,0.04,0.027
		c0.004,0.004,0.008,0.006,0.011,0.01c0.035,0.023,0.073,0.047,0.107,0.07c0.017,0.01,0.029,0.021,0.047,0.031
		c0.055,0.035,0.11,0.07,0.169,0.104c0.015,0.008,0.028,0.019,0.046,0.025c0.042,0.023,0.084,0.049,0.127,0.07
		c0.021,0.013,0.046,0.025,0.067,0.037c0.029,0.016,0.062,0.029,0.092,0.045c0.008,0.005,0.015,0.008,0.021,0.012
		c0.013,0.006,0.024,0.012,0.037,0.018c0.048,0.022,0.095,0.045,0.143,0.066c0.013,0.005,0.021,0.01,0.031,0.014
		c0.058,0.024,0.11,0.047,0.167,0.069c0.014,0.006,0.027,0.011,0.041,0.017c0.051,0.021,0.104,0.039,0.156,0.061
		c0.008,0.002,0.014,0.004,0.021,0.006c0.06,0.021,0.116,0.039,0.177,0.059c0.015,0.006,0.027,0.01,0.043,0.015
		c0.061,0.018,0.119,0.04,0.182,0.05c3.938,0.718,5.079-2.365,5.079-2.365c-0.96,1.252-2.665,1.582-4.279,1.215
		c-0.062-0.015-0.121-0.033-0.181-0.052c-0.017-0.005-0.029-0.009-0.044-0.014c-0.062-0.019-0.117-0.036-0.175-0.056
		c-0.011-0.004-0.017-0.008-0.023-0.011c-0.051-0.021-0.103-0.036-0.153-0.058c-0.015-0.008-0.026-0.012-0.043-0.018
		c-0.056-0.021-0.107-0.045-0.165-0.068c-0.011-0.006-0.021-0.01-0.031-0.016c-0.047-0.021-0.095-0.041-0.141-0.063
		c-0.013-0.008-0.024-0.014-0.041-0.021c-0.036-0.018-0.069-0.035-0.106-0.055c-0.022-0.014-0.047-0.025-0.071-0.038
		c-0.044-0.022-0.085-0.047-0.129-0.071c-0.014-0.01-0.029-0.017-0.044-0.023c-0.057-0.033-0.113-0.066-0.169-0.104
		c-0.017-0.012-0.03-0.021-0.044-0.031c-0.041-0.023-0.08-0.051-0.12-0.078c-0.015-0.01-0.025-0.02-0.039-0.027
		c-0.038-0.025-0.076-0.055-0.113-0.081c-0.017-0.014-0.033-0.024-0.05-0.036c-0.033-0.027-0.067-0.055-0.104-0.08
		c-0.016-0.014-0.029-0.023-0.047-0.037c-0.042-0.035-0.083-0.07-0.125-0.106c-0.006-0.005-0.011-0.009-0.017-0.013
		c-0.044-0.039-0.088-0.08-0.133-0.121c-0.012-0.014-0.025-0.023-0.037-0.036c-0.032-0.031-0.064-0.063-0.096-0.095
		c-0.016-0.014-0.026-0.024-0.038-0.037c-0.04-0.041-0.079-0.082-0.118-0.125c-0.003-0.002-0.004-0.004-0.006-0.006
		c-0.041-0.045-0.081-0.092-0.12-0.137c-0.01-0.014-0.021-0.025-0.031-0.037c-0.028-0.035-0.057-0.07-0.086-0.105
		c-0.011-0.014-0.021-0.025-0.03-0.04c-0.034-0.044-0.066-0.087-0.101-0.132c-0.896-1.223-1.219-2.91-0.502-4.297"/>
	<path fill="#0A69AD" d="M286.426,147.688c-0.589,0.848-0.557,1.979-0.098,2.876c0.077,0.149,0.163,0.296,0.26,0.435
		c0.088,0.127,0.188,0.277,0.305,0.379c0.041,0.048,0.085,0.094,0.134,0.138c0.011,0.012,0.021,0.022,0.032,0.035
		c0.044,0.043,0.089,0.084,0.138,0.125c0,0.003,0.003,0.003,0.004,0.006c0.001,0,0.002,0.001,0.002,0.001
		c0.052,0.045,0.104,0.088,0.158,0.13c0.012,0.011,0.021,0.021,0.033,0.026c0.056,0.041,0.108,0.082,0.165,0.121
		c0.001,0,0.004,0.002,0.004,0.002c0.026,0.02,0.052,0.033,0.076,0.052c0.014,0.008,0.023,0.019,0.035,0.022
		c0.04,0.025,0.082,0.051,0.123,0.074c0.005,0.004,0.012,0.008,0.016,0.012c0.037,0.021,0.073,0.039,0.108,0.061
		c0.014,0.008,0.026,0.016,0.04,0.021c0.023,0.014,0.049,0.025,0.074,0.039c0.005,0.002,0.008,0.004,0.011,0.006
		c0.053,0.023,0.105,0.049,0.159,0.074c0.011,0.004,0.021,0.008,0.034,0.014c0.043,0.018,0.086,0.035,0.129,0.053
		c0.019,0.006,0.037,0.014,0.055,0.021c0.04,0.014,0.079,0.025,0.119,0.041c0.018,0.004,0.036,0.012,0.054,0.018
		c0.059,0.018,0.114,0.039,0.172,0.05c3.039,0.503,3.741-1.837,3.741-1.837c-0.632,0.91-1.857,1.346-3.165,1.006
		c-0.057-0.016-0.114-0.031-0.172-0.05c-0.018-0.007-0.035-0.011-0.052-0.017c-0.041-0.015-0.081-0.027-0.12-0.043
		c-0.021-0.006-0.037-0.014-0.055-0.021c-0.046-0.018-0.088-0.033-0.132-0.052c-0.011-0.007-0.021-0.011-0.032-0.015
		c-0.056-0.024-0.107-0.049-0.159-0.074c-0.027-0.014-0.055-0.026-0.079-0.041c-0.017-0.008-0.031-0.016-0.046-0.023
		c-0.034-0.02-0.067-0.037-0.103-0.056c-0.009-0.005-0.017-0.011-0.022-0.015c-0.042-0.024-0.081-0.049-0.121-0.074
		c-0.013-0.01-0.025-0.019-0.037-0.023c-0.026-0.02-0.053-0.033-0.079-0.054c-0.056-0.037-0.11-0.077-0.164-0.119
		c-0.013-0.013-0.023-0.021-0.036-0.028c-0.571-0.451-1.025-1.068-1.242-1.771c-0.226-0.726-0.177-1.539,0.216-2.201"/>
	<path fill="#0A69AD" d="M288.551,146.951c-0.347,0.512-0.381,1.146-0.142,1.709c0.255,0.6,0.774,1.068,1.383,1.291
		c0.025,0.008,0.05,0.019,0.076,0.025c0.011,0.004,0.021,0.007,0.032,0.01c0.033,0.012,0.069,0.024,0.106,0.032
		c1.679,0.324,2.134-0.86,2.255-1.036c-0.397,0.573-1.067,0.713-1.892,0.512c-0.064-0.015-0.136-0.037-0.197-0.061
		c-0.082-0.027-0.161-0.063-0.237-0.098c-0.146-0.07-0.284-0.155-0.415-0.254c-0.733-0.56-1.19-1.623-0.712-2.489"/>
	<path fill="#0A69AD" d="M307.451,156.896L306.967,158h-0.533l0.044-1.002L306.084,158h-0.52l-0.014-1.104l0.058-0.271h0.366
		l-0.071,1.088l0.408-1.088h0.51l-0.035,1.104l0.401-1.104h0.318L307.451,156.896L307.451,156.896z"/>
	<path fill="#0A69AD" d="M308.293,157.223c0.048-0.215,0.034-0.255-0.076-0.255h-0.169l-0.107,0.504l-0.164,0.526h-0.312
		l0.255-1.195l0.036-0.176h0.286l0.037,0.082c0,0,0.164-0.098,0.323-0.098c0.345,0,0.316,0.258,0.242,0.609L308.293,157.223
		L308.293,157.223z"/>
	<path fill="#0A69AD" d="M309.308,156.453c-0.138,0-0.225-0.039-0.189-0.207s0.146-0.209,0.276-0.209
		c0.136,0,0.228,0.041,0.188,0.209C309.551,156.41,309.441,156.453,309.308,156.453L309.308,156.453z M309.161,157.998h-0.312
		l0.063-0.537l0.105-0.498l-0.216-0.045l0.062-0.293h0.59L309.161,157.998L309.161,157.998z"/>
	<path fill="#0A69AD" d="M310.5,156.916l-0.387,0.047l-0.109,0.525c-0.03,0.143-0.03,0.184,0.098,0.184h0.258l-0.054,0.275
		c0,0-0.235,0.069-0.337,0.069c-0.396,0-0.392-0.22-0.321-0.545l0.108-0.515l-0.216-0.047l0.063-0.293h0.227l0.128-0.347h0.306
		l-0.073,0.347h0.375L310.5,156.916L310.5,156.916z"/>
	<path fill="#0A69AD" d="M311.304,156.934c-0.182,0-0.275,0.094-0.313,0.264l0.52-0.045
		C311.531,157.039,311.509,156.934,311.304,156.934L311.304,156.934z M310.94,157.445c-0.021,0.168,0.039,0.225,0.256,0.225h0.541
		l-0.055,0.257c0,0-0.325,0.091-0.568,0.091c-0.601,0-0.605-0.34-0.528-0.702c0.078-0.354,0.216-0.709,0.797-0.709
		c0.562,0,0.588,0.341,0.45,0.841h-0.893V157.445z"/>
	<path fill="#0A69AD" d="M313.063,157.998h-0.31l0.062-0.539l0.22-1.021l-0.218-0.049l0.064-0.293h0.587L313.063,157.998
		L313.063,157.998z"/>
	<path fill="#0A69AD" d="M314.179,156.934c-0.181,0-0.275,0.094-0.312,0.264l0.516-0.045
		C314.406,157.039,314.383,156.934,314.179,156.934L314.179,156.934z M313.815,157.445c-0.021,0.168,0.041,0.225,0.255,0.225h0.541
		l-0.054,0.257c0,0-0.325,0.091-0.567,0.091c-0.602,0-0.605-0.34-0.529-0.702c0.078-0.354,0.216-0.709,0.796-0.709
		c0.562,0,0.588,0.341,0.451,0.841h-0.893V157.445z"/>
	<path fill="#0A69AD" d="M316.124,156.951c0,0-0.396,0.002-0.501,0.002c-0.229,0-0.252,0.071-0.271,0.146l-0.013,0.066l0.725,0.055
		c0,0,0.003,0.23-0.024,0.361c-0.044,0.221-0.271,0.439-0.677,0.439c-0.2,0-0.526-0.076-0.526-0.076l0.058-0.266h0.5
		c0.224,0,0.252-0.061,0.269-0.121l0.016-0.087l-0.712-0.056c0,0-0.026-0.178,0.01-0.354c0.055-0.242,0.275-0.45,0.683-0.45
		c0.201,0,0.526,0.073,0.526,0.073L316.124,156.951L316.124,156.951z"/>
	<path fill="#0A69AD" d="M317.473,156.951c0,0-0.392,0.002-0.5,0.002c-0.229,0-0.251,0.071-0.269,0.146l-0.015,0.066l0.726,0.055
		c0,0,0.005,0.23-0.026,0.361c-0.044,0.221-0.269,0.439-0.675,0.439c-0.201,0-0.527-0.076-0.527-0.076l0.059-0.266h0.501
		c0.222,0,0.252-0.061,0.267-0.121l0.016-0.087l-0.712-0.056c0,0-0.024-0.178,0.012-0.354c0.054-0.242,0.273-0.45,0.682-0.45
		c0.202,0,0.527,0.073,0.527,0.073L317.473,156.951L317.473,156.951z"/>
	<path fill="#0A69AD" d="M317.896,158.217h-0.269l0.011-0.201c-0.098-0.007-0.147-0.078-0.126-0.195
		c0.038-0.166,0.143-0.207,0.28-0.207c0.135,0,0.225,0.041,0.188,0.207L317.896,158.217L317.896,158.217z"/>
	<path fill="#0A69AD" d="M319.693,156.963c-0.2,0-0.271,0.121-0.317,0.345c-0.047,0.222-0.033,0.353,0.167,0.353h0.278l0.153-0.695
		h-0.281V156.963z M320.153,157.82l-0.038,0.18l-0.279-0.004l-0.039-0.088c0,0-0.25,0.107-0.417,0.107
		c-0.433,0-0.451-0.354-0.375-0.708c0.078-0.362,0.246-0.706,0.673-0.706c0.155,0,0.363,0.076,0.363,0.076l0.172-0.58h0.308
		L320.153,157.82L320.153,157.82z"/>
	<path fill="#0A69AD" d="M321.266,156.951c-0.263,0-0.348,0.146-0.395,0.361c-0.042,0.221-0.021,0.367,0.234,0.367
		c0.271,0,0.351-0.145,0.396-0.367C321.551,157.104,321.537,156.951,321.266,156.951L321.266,156.951z M321.038,158.019
		c-0.558,0-0.601-0.347-0.524-0.706c0.077-0.359,0.272-0.701,0.826-0.701c0.551,0,0.601,0.342,0.521,0.701
		C321.786,157.68,321.592,158.019,321.038,158.019z"/>
	<path fill="#0A69AD" d="M324.181,157.998l0.063-0.53l0.029-0.151c0.043-0.201,0.07-0.35-0.143-0.35h-0.164
		c0.007,0.104-0.013,0.222-0.041,0.346l-0.146,0.686h-0.313l0.063-0.528l0.028-0.151c0.044-0.201,0.07-0.35-0.14-0.35h-0.137
		l-0.221,1.029h-0.358l0.291-1.373h0.281l0.044,0.084c0,0,0.191-0.102,0.348-0.102c0.117,0,0.205,0.055,0.233,0.12
		c0.066-0.036,0.26-0.12,0.396-0.12c0.429,0,0.416,0.35,0.339,0.705l-0.146,0.686H324.181L324.181,157.998z"/>
	<path fill="#0A69AD" d="M325.609,156.951c-0.262,0-0.347,0.146-0.395,0.361c-0.043,0.221-0.022,0.367,0.233,0.367
		c0.271,0,0.352-0.145,0.396-0.367C325.894,157.104,325.882,156.951,325.609,156.951z M325.381,158.019
		c-0.555,0-0.598-0.347-0.523-0.706c0.076-0.359,0.271-0.701,0.825-0.701c0.551,0,0.604,0.342,0.524,0.701
		C326.131,157.68,325.935,158.019,325.381,158.019z"/>
	<path fill="#0A69AD" d="M327.141,157.223c0.046-0.215,0.032-0.255-0.077-0.255h-0.169l-0.104,0.504l-0.166,0.526h-0.313
		l0.256-1.195l0.037-0.176h0.285l0.036,0.082c0,0,0.166-0.098,0.327-0.098c0.343,0,0.313,0.258,0.241,0.609L327.141,157.223
		L327.141,157.223z"/>
	<path fill="#0A69AD" d="M328.344,156.934c-0.181,0-0.275,0.094-0.313,0.264l0.519-0.045
		C328.572,157.039,328.548,156.934,328.344,156.934L328.344,156.934z M327.979,157.445c-0.021,0.168,0.041,0.225,0.257,0.225h0.542
		l-0.056,0.257c0,0-0.325,0.091-0.565,0.091c-0.603,0-0.606-0.34-0.53-0.702c0.078-0.354,0.214-0.709,0.796-0.709
		c0.562,0,0.588,0.341,0.45,0.841h-0.894V157.445z"/>
	<path fill="#0A69AD" d="M329.173,158.019c-0.144,0-0.229-0.04-0.191-0.205c0.034-0.169,0.14-0.208,0.278-0.208
		c0.131,0,0.223,0.039,0.188,0.208C329.411,157.975,329.304,158.019,329.173,158.019z"/>
</g>
<path fill="#05546B" d="M417.466,246.432c-1.257-0.032-2.229,0.094-3.046,0.438c-0.233,0.094-0.61,0.096-0.645,0.393
	c0.126,0.125,0.143,0.33,0.251,0.504c0.188,0.313,0.519,0.736,0.815,0.957c0.329,0.25,0.66,0.504,1.007,0.723
	c0.61,0.377,1.303,0.597,1.897,0.975c0.348,0.221,0.691,0.502,1.037,0.736c0.173,0.126,0.282,0.331,0.502,0.409v-0.048
	c-0.107-0.141-0.141-0.346-0.25-0.502c-0.158-0.158-0.313-0.299-0.472-0.455c-0.456-0.613-1.021-1.146-1.634-1.588
	c-0.503-0.344-1.604-0.815-1.808-1.396c0,0-0.016-0.018-0.031-0.031c0.347-0.031,0.756-0.156,1.085-0.25
	c0.532-0.144,1.021-0.109,1.568-0.25c0.251-0.064,0.502-0.145,0.754-0.223v-0.143c-0.281-0.281-0.485-0.66-0.785-0.926
	c-0.802-0.691-1.681-1.367-2.591-1.933c-0.485-0.313-1.115-0.521-1.633-0.785c-0.188-0.095-0.503-0.142-0.613-0.298
	c-0.279-0.348-0.438-0.803-0.643-1.21c-0.456-0.863-0.896-1.821-1.288-2.731c-0.282-0.613-0.455-1.226-0.8-1.791
	c-1.618-2.668-3.377-4.285-6.077-5.871c-0.582-0.33-1.272-0.473-2.012-0.646c-0.394-0.015-0.784-0.047-1.178-0.063
	c-0.252-0.108-0.504-0.408-0.723-0.549c-0.896-0.564-3.203-1.789-3.863-0.174c-0.424,1.021,0.629,2.025,0.989,2.545
	c0.269,0.36,0.612,0.768,0.802,1.178c0.11,0.269,0.143,0.549,0.251,0.832c0.251,0.69,0.486,1.461,0.815,2.104
	c0.173,0.331,0.362,0.677,0.58,0.976c0.126,0.174,0.347,0.252,0.395,0.532c-0.22,0.313-0.234,0.785-0.36,1.181
	c-0.564,1.772-0.346,3.973,0.456,5.273c0.25,0.395,0.847,1.257,1.647,0.928c0.706-0.281,0.548-1.179,0.753-1.964
	c0.046-0.188,0.018-0.313,0.11-0.438c0,0.016,0,0.031,0,0.031c0.22,0.439,0.438,0.863,0.644,1.305
	c0.486,0.769,1.334,1.57,2.041,2.104c0.377,0.283,0.676,0.77,1.146,0.941v-0.047h-0.031c-0.094-0.141-0.235-0.203-0.36-0.313
	c-0.28-0.282-0.598-0.629-0.814-0.942c-0.66-0.879-1.241-1.854-1.759-2.856c-0.251-0.485-0.474-1.021-0.677-1.509
	c-0.095-0.188-0.095-0.471-0.253-0.563c-0.232,0.344-0.58,0.643-0.753,1.066c-0.298,0.676-0.33,1.508-0.438,2.371
	c-0.063,0.016-0.032,0-0.063,0.029c-0.502-0.125-0.675-0.644-0.861-1.082c-0.474-1.115-0.552-2.904-0.144-4.191
	c0.11-0.331,0.581-1.367,0.395-1.682c-0.097-0.299-0.408-0.472-0.581-0.705c-0.204-0.299-0.424-0.676-0.565-1.006
	c-0.377-0.879-0.563-1.854-0.974-2.731c-0.188-0.409-0.521-0.832-0.785-1.209c-0.297-0.425-0.628-0.724-0.864-1.226
	c-0.077-0.174-0.188-0.455-0.063-0.646c0.03-0.125,0.094-0.173,0.22-0.204c0.205-0.173,0.786,0.047,0.99,0.143
	c0.58,0.233,1.064,0.455,1.553,0.785c0.222,0.155,0.457,0.454,0.738,0.532h0.331c0.502,0.108,1.066,0.031,1.539,0.175
	c0.832,0.266,1.587,0.658,2.261,1.084c2.057,1.301,3.753,3.153,4.897,5.367c0.188,0.362,0.269,0.691,0.439,1.069
	c0.33,0.771,0.738,1.554,1.068,2.308c0.327,0.738,0.643,1.492,1.112,2.104c0.236,0.328,1.179,0.503,1.604,0.675
	c0.313,0.144,0.802,0.269,1.083,0.438c0.532,0.33,1.067,0.707,1.568,1.067C416.634,245.723,417.418,246.118,417.466,246.432
	L417.466,246.432L417.466,246.432z"/>
<path fill="#05546B" d="M403.705,234.042c-0.267,0-0.455,0.031-0.644,0.078c0,0,0,0.016,0,0.031h0.029
	c0.126,0.252,0.348,0.424,0.502,0.645c0.128,0.25,0.236,0.502,0.361,0.754c0.019-0.017,0.032-0.031,0.032-0.031
	c0.22-0.156,0.329-0.407,0.329-0.784c-0.094-0.109-0.109-0.222-0.188-0.329C404.035,234.246,403.831,234.167,403.705,234.042
	L403.705,234.042L403.705,234.042z"/>
<radialGradient id="SVGID_2_" cx="420.301" cy="596.3433" r="22.8188" gradientTransform="matrix(1 0 0 1 -168.6802 -452.6201)" gradientUnits="userSpaceOnUse">
	<stop  offset="0" style="stop-color:#FFFFFF"/>
	<stop  offset="0.5" style="stop-color:#4D6998"/>
	<stop  offset="1" style="stop-color:#000000"/>
</radialGradient>
<ellipse fill="url(#SVGID_2_)" cx="258.563" cy="149.65" rx="17.38" ry="9.141"/>
<ellipse fill="#6682BA" cx="258.563" cy="149.651" rx="16.7" ry="8.463"/>
<g>
	<path fill="#FFFFFF" d="M261.947,152.386l0.828-4.264c0.188-0.963,0.03-1.681-0.463-2.135c-0.479-0.438-1.29-0.65-2.479-0.65
		h-1.437l0.41-2.112c0.018-0.079-0.006-0.162-0.058-0.226c-0.051-0.063-0.127-0.101-0.209-0.101h-1.979
		c-0.131,0-0.24,0.095-0.267,0.222l-0.879,4.524c-0.081-0.511-0.277-0.947-0.593-1.31c-0.581-0.664-1.5-1.002-2.731-1.002h-3.837
		c-0.13,0-0.242,0.092-0.267,0.221l-1.781,9.16c-0.016,0.08,0.006,0.162,0.058,0.226c0.055,0.063,0.128,0.101,0.209,0.101h1.996
		c0.13,0,0.242-0.094,0.269-0.221l0.431-2.216h1.485c0.777,0,1.435-0.085,1.944-0.251c0.522-0.171,1.003-0.458,1.43-0.854
		c0.343-0.314,0.626-0.668,0.845-1.049l-0.356,1.829c-0.017,0.08,0.005,0.163,0.059,0.226c0.052,0.063,0.128,0.101,0.21,0.101h1.979
		c0.13,0,0.242-0.093,0.269-0.22l0.978-5.029h1.357c0.58,0,0.749,0.115,0.796,0.165c0.041,0.046,0.129,0.205,0.03,0.708
		l-0.787,4.053c-0.018,0.079,0.006,0.162,0.057,0.225c0.052,0.063,0.129,0.101,0.21,0.101h2.011
		C261.81,152.606,261.922,152.513,261.947,152.386z M252.767,148.864c-0.124,0.64-0.356,1.095-0.695,1.354
		c-0.345,0.265-0.894,0.398-1.634,0.398h-0.884l0.642-3.291h1.144c0.84,0,1.178,0.18,1.314,0.328
		C252.841,147.865,252.881,148.283,252.767,148.864z"/>
	<path fill="#FFFFFF" d="M270.414,146.337c-0.581-0.664-1.499-1-2.731-1h-3.837c-0.131,0-0.242,0.09-0.267,0.219l-1.78,9.162
		c-0.016,0.078,0.006,0.162,0.056,0.224c0.055,0.063,0.131,0.101,0.213,0.101h1.993c0.133,0,0.242-0.094,0.269-0.221l0.431-2.216
		h1.486c0.779,0,1.434-0.085,1.942-0.251c0.523-0.171,1.007-0.458,1.431-0.855c0.354-0.324,0.646-0.688,0.865-1.084
		c0.221-0.396,0.38-0.834,0.471-1.309C271.179,147.94,270.998,147.007,270.414,146.337z M268.344,148.864
		c-0.125,0.64-0.357,1.095-0.697,1.354c-0.342,0.265-0.892,0.398-1.632,0.398h-0.884l0.64-3.291h1.145c0.84,0,1.18,0.18,1.313,0.328
		C268.417,147.865,268.456,148.283,268.344,148.864z"/>
</g>
<g>
	<path d="M251.338,147.054c0.759,0,1.263,0.14,1.517,0.42c0.254,0.279,0.313,0.761,0.182,1.441
		c-0.141,0.709-0.404,1.215-0.797,1.519c-0.396,0.303-0.993,0.454-1.801,0.454h-1.214l0.746-3.834H251.338L251.338,147.054z
		 M246.474,154.77h1.996l0.476-2.437h1.709c0.755,0,1.374-0.08,1.86-0.237c0.486-0.158,0.932-0.425,1.329-0.796
		c0.333-0.309,0.604-0.647,0.813-1.018c0.206-0.371,0.354-0.781,0.438-1.229c0.212-1.088,0.053-1.934-0.477-2.538
		c-0.53-0.604-1.371-0.909-2.526-0.909h-3.837L246.474,154.77z"/>
	<path d="M256.562,143.173h1.979l-0.474,2.436h1.765c1.108,0,1.875,0.193,2.296,0.581c0.422,0.388,0.548,1.015,0.379,1.881
		l-0.828,4.263h-2.011l0.788-4.053c0.089-0.461,0.057-0.775-0.102-0.943c-0.153-0.166-0.485-0.25-0.992-0.25h-1.582l-1.021,5.246
		h-1.979L256.562,143.173z"/>
	<path d="M266.913,147.054c0.76,0,1.265,0.14,1.517,0.42c0.252,0.279,0.313,0.761,0.183,1.441c-0.14,0.709-0.404,1.215-0.799,1.519
		c-0.395,0.303-0.992,0.454-1.799,0.454h-1.214l0.746-3.834H266.913L266.913,147.054z M262.051,154.77h1.996l0.473-2.437h1.71
		c0.757,0,1.376-0.08,1.862-0.237c0.486-0.158,0.93-0.425,1.328-0.796c0.335-0.309,0.604-0.647,0.813-1.018
		c0.204-0.371,0.354-0.781,0.438-1.229c0.212-1.088,0.052-1.934-0.478-2.538c-0.528-0.604-1.371-0.909-2.525-0.909h-3.838
		L262.051,154.77z"/>
</g>
<rect x="4.084" y="106.001" fill="none" width="16.583" height="109.934"/>
<g enable-background="new    ">
	<path fill="#FFFFFF" d="M1.232,264.041v-11.885H2.45v5.229h13.772v1.429H2.449v5.229H1.232V264.041z"/>
	<path fill="#FFFFFF" d="M1.232,250.474v-1.322h2.12v1.322H1.232z M5.389,250.474v-1.322h10.834v1.322H5.389z"/>
	<path fill="#FFFFFF" d="M5.389,246.611v-1.218h1.826v-0.063c-1.301-0.691-2.141-1.826-2.141-3.547c0-1.429,0.691-2.709,2.119-3.107
		c-1.428-0.651-2.119-2.016-2.119-3.443c0-2.372,1.237-3.591,3.8-3.591h7.349v1.323H8.938c-1.785,0-2.751,0.672-2.751,2.562
		c0,2.289,1.891,2.938,3.905,2.938h6.131v1.322H8.874c-1.471-0.021-2.688,0.588-2.688,2.269c0,2.288,1.723,3.213,3.989,3.233h6.047
		v1.322H5.389z"/>
	<path fill="#FFFFFF" d="M11.162,228.341c1.932-0.021,4.263-1.029,4.263-3.57c0-1.932-1.134-2.98-2.771-3.4v-1.322
		c2.456,0.566,3.885,1.994,3.885,4.724c0,3.442-2.646,4.894-5.731,4.894c-2.854,0-5.73-1.449-5.73-4.894
		c0-3.483,3.044-4.871,6.088-4.767v8.336H11.162z M10.05,221.328c-1.995,0.063-3.863,1.303-3.863,3.443
		c0,2.163,1.891,3.359,3.863,3.57V221.328z"/>
	<path fill="#FFFFFF" d="M8.559,205.893c-1.637,0.063-2.372,1.323-2.372,2.835c0,1.176,0.462,2.561,1.868,2.561
		c1.176,0,1.596-1.344,1.827-2.246l0.398-1.764c0.23-1.512,1.112-3.086,3.003-3.086c2.352,0,3.254,2.33,3.254,4.346
		c0,2.521-1.177,4.241-3.82,4.451v-1.322c1.784-0.104,2.708-1.428,2.708-3.19c0-1.239-0.546-2.961-2.058-2.961
		c-1.261,0-1.681,1.176-1.975,2.373l-0.378,1.7c-0.462,1.722-1.05,3.022-2.896,3.022c-2.204,0-3.044-2.163-3.044-4.073
		c0-2.162,1.133-3.885,3.483-3.969L8.559,205.893L8.559,205.893z"/>
	<path fill="#FFFFFF" d="M5.389,202.281v-1.219h2.058v-0.041c-1.47-0.609-2.371-2.121-2.371-3.864c0-3.296,2.666-4.871,5.73-4.871
		c3.065,0,5.731,1.575,5.731,4.871c0,1.617-0.818,3.192-2.372,3.758v0.041h6.066v1.324H5.389L5.389,202.281z M6.187,197.157
		c0,2.918,2.163,3.799,4.619,3.799c2.247,0,4.619-0.986,4.619-3.799c0-2.521-2.372-3.548-4.619-3.548S6.187,194.638,6.187,197.157z"
		/>
	<path fill="#FFFFFF" d="M11.162,189.449c1.932-0.021,4.263-1.029,4.263-3.569c0-1.932-1.134-2.981-2.771-3.401v-1.323
		c2.456,0.567,3.885,1.995,3.885,4.724c0,3.443-2.646,4.892-5.731,4.892c-2.854,0-5.73-1.449-5.73-4.892
		c0-3.485,3.044-4.871,6.088-4.766v8.335H11.162z M10.05,182.437c-1.995,0.063-3.863,1.302-3.863,3.443
		c0,2.163,1.891,3.359,3.863,3.569V182.437z"/>
	<path fill="#FFFFFF" d="M5.389,179.348v-1.323h1.869v-0.042c-1.303-0.483-2.184-1.932-2.184-3.464c0-3.044,1.596-3.968,4.178-3.968
		h6.971v1.323H9.462c-1.868,0-3.275,0.609-3.275,2.75c0,2.1,1.597,3.359,3.716,3.401h6.32v1.323H5.389z"/>
	<path fill="#FFFFFF" d="M5.389,165.951v-2.205h1.113v2.205h7.307c0.86,0,1.364-0.126,1.428-1.071c0-0.378-0.021-0.756-0.063-1.134
		h1.134c0,0.399,0.042,0.777,0.042,1.176c0,1.764-0.588,2.373-2.436,2.352H6.502v1.89H5.389v-1.89H2.135v-1.323H5.389z"/>
	<path fill="#FFFFFF" d="M10.806,146.297c3.107,0,5.731,1.806,5.731,5.123s-2.624,5.123-5.731,5.123c-3.106,0-5.73-1.806-5.73-5.123
		S7.698,146.297,10.806,146.297z M10.806,155.22c2.311,0,4.619-1.26,4.619-3.8s-2.31-3.8-4.619-3.8c-2.309,0-4.619,1.26-4.619,3.8
		S8.496,155.22,10.806,155.22z"/>
	<path fill="#FFFFFF" d="M5.389,144.342v-1.323h1.869v-0.042c-1.303-0.483-2.184-1.932-2.184-3.464c0-3.044,1.596-3.968,4.178-3.968
		h6.971v1.323H9.462c-1.868,0-3.275,0.609-3.275,2.75c0,2.1,1.597,3.359,3.716,3.401h6.32v1.323H5.389z"/>
</g>
<g>
	<path fill="#00769D" d="M202.066,31.282h-1.362l3.713,10.497l2.079-5.942l-1.612-4.555h-1.438v-1h6.364v1h-1.491l3.715,10.497
		l1.334-3.815c1.751-4.887-1.436-6.408-1.436-7.5c0-1.09,0.884-1.976,1.976-1.976c0.059,0,0.116,0.003,0.173,0.009
		c-1.849-1.744-4.34-2.813-7.082-2.813c-3.583,0-6.739,1.825-8.588,4.599h3.654L202.066,31.282L202.066,31.282z"/>
	<path fill="#00769D" d="M196.68,36c0,3.951,2.22,7.383,5.481,9.117l-4.657-13.164C196.974,33.197,196.68,34.565,196.68,36z"/>
	<path fill="#00769D" d="M215.979,30.917c0.148,0.869,0.104,1.847-0.123,2.826h0.041l-0.155,0.447l0,0
		c-0.094,0.32-0.208,0.65-0.342,0.975l-3.551,9.946c3.254-1.735,5.468-5.163,5.468-9.108
		C217.318,34.152,216.832,32.417,215.979,30.917z"/>
	<path fill="#00769D" d="M203.816,45.819c1.003,0.325,2.072,0.502,3.184,0.502c1.059,0,2.082-0.16,3.043-0.455l-3.019-8.533
		L203.816,45.819z"/>
	<path fill="#00769D" d="M215.719,27.282c-2.33-2.33-5.426-3.613-8.721-3.613c-3.294,0-6.392,1.283-8.721,3.613
		c-2.328,2.328-3.611,5.426-3.611,8.719c0,3.295,1.283,6.393,3.611,8.722c2.329,2.329,5.427,3.612,8.722,3.612
		c3.294,0,6.391-1.283,8.72-3.612s3.612-5.427,3.612-8.722S218.05,29.61,215.719,27.282z M207,47.463
		c-6.321,0-11.462-5.143-11.462-11.463S200.678,24.538,207,24.538c6.32,0,11.462,5.143,11.462,11.463
		C218.462,42.322,213.32,47.463,207,47.463z"/>
</g>
</svg>
